<?xml version="1.0" encoding="UTF-8"?>
<svg version="1.1" xmlns="http://www.w3.org/2000/svg" width="114" height="114">
<path d="M0 0 C0.99 0.66 1.98 1.32 3 2 C3 2.99 3 3.98 3 5 C1.84242187 5.49242187 0.68484375 5.98484375 -0.5078125 6.4921875 C-2.47812679 7.52636533 -2.47812679 7.52636533 -4 9 C-4.2395618 11.95459555 -4.16867234 14.23122221 -3.875 17.125 C-3.76100547 24.52995969 -3.76100547 24.52995969 -6.31445312 27.55957031 C-10.24579349 30.61753024 -14.78196718 32.59985645 -19.28466797 34.67236328 C-22.3012531 36.14729494 -25.1527827 37.80524575 -28.03515625 39.52734375 C-29.05528809 40.13352539 -30.07541992 40.73970703 -31.12646484 41.36425781 C-33.13894264 42.56294853 -35.1484825 43.76658802 -37.15478516 44.97558594 C-38.08726074 45.51344727 -39.01973633 46.05130859 -39.98046875 46.60546875 C-40.80442139 47.09168701 -41.62837402 47.57790527 -42.47729492 48.07885742 C-46.29172062 49.47165992 -49.29892957 48.7335259 -52.96630859 47.15209961 C-53.52141113 46.82218018 -54.07651367 46.49226074 -54.6484375 46.15234375 C-55.26074219 45.79462891 -55.87304688 45.43691406 -56.50390625 45.06835938 C-57.43009766 44.50858398 -57.43009766 44.50858398 -58.375 43.9375 C-59.01566406 43.56044922 -59.65632813 43.18339844 -60.31640625 42.79492188 C-61.88254066 41.87160383 -63.44198034 40.93694607 -65 40 C-65 39.34 -65 38.68 -65 38 C-64.2879541 37.59386475 -63.5759082 37.18772949 -62.84228516 36.76928711 C-54.87424805 32.22331359 -46.90943579 27.67173345 -38.94769287 23.11474609 C-37.67404099 22.38578185 -36.40032144 21.65693581 -35.12652588 20.92822266 C-31.06106588 18.60223145 -26.99863676 16.27103168 -22.9375 13.9375 C-21.89996582 13.34380615 -20.86243164 12.7501123 -19.79345703 12.13842773 C-13.07540334 8.27149558 -6.5049508 4.21538719 0 0 Z " fill="#4987C7" transform="translate(104,56)"/>
<path d="M0 0 C1.96630859 0.84790039 1.96630859 0.84790039 3.6484375 1.84765625 C4.26074219 2.20537109 4.87304688 2.56308594 5.50390625 2.93164062 C6.12136719 3.30482422 6.73882812 3.67800781 7.375 4.0625 C8.33599609 4.62807617 8.33599609 4.62807617 9.31640625 5.20507812 C10.88254066 6.12839617 12.44198034 7.06305393 14 8 C14 8.66 14 9.32 14 10 C12.9790625 10.55945312 11.958125 11.11890625 10.90625 11.6953125 C0.90149496 17.20314041 -8.99392914 22.87994931 -18.84765625 28.65332031 C-28.85439449 34.5130353 -38.91909867 40.26903305 -49 46 C-49.99 45.34 -50.98 44.68 -52 44 C-52 43.01 -52 42.02 -52 41 C-50.02 40.34 -48.04 39.68 -46 39 C-46 33.39 -46 27.78 -46 22 C-44.11796875 20.92621094 -42.2359375 19.85242188 -40.296875 18.74609375 C-38.42993578 17.68039237 -36.56310754 16.61449685 -34.69628906 15.54858398 C-33.42036264 14.82019197 -32.14432491 14.09199489 -30.86816406 13.36401367 C-29.62852613 12.65683439 -28.38914583 11.94920331 -27.15002441 11.24111938 C-25.91346648 10.5354603 -24.67574948 9.83182848 -23.43688965 9.13021851 C-20.45267432 7.43411213 -17.52098609 5.69968451 -14.61132812 3.87548828 C-13.04801758 2.90264893 -13.04801758 2.90264893 -11.453125 1.91015625 C-10.54208008 1.32500244 -9.63103516 0.73984863 -8.69238281 0.13696289 C-5.30425968 -1.29380329 -3.50866795 -0.96899286 0 0 Z " fill="#4987C7" transform="translate(61,11)"/>
<path d="M0 0 C0.99 0 1.98 0 3 0 C3.495 1.98 3.495 1.98 4 4 C2.35 5.32 0.7 6.64 -1 8 C-0.01 8.66 0.98 9.32 2 10 C3.48205087 14.27696871 3.43018721 17.71465804 2 22 C-1.97197542 25.66688166 -6.48523612 27.98991093 -11.24560547 30.50146484 C-16.19137936 33.19222536 -20.97378821 36.16242588 -25.78445435 39.08554077 C-28.54692474 40.75933787 -31.32053276 42.41440253 -34.09375 44.0703125 C-35.03927734 44.63508301 -35.98480469 45.19985352 -36.95898438 45.78173828 C-37.63251953 46.18376465 -38.30605469 46.58579102 -39 47 C-40.48030272 46.18957164 -41.95921142 45.37659652 -43.4375 44.5625 C-44.26121094 44.11003906 -45.08492187 43.65757813 -45.93359375 43.19140625 C-48 42 -48 42 -49 41 C-49.70556837 36.87020751 -49.82657321 33.11628152 -49 29 C-46.41123213 25.91480866 -43.21022707 24.43085669 -39.625 22.6875 C-37.62323045 21.6141526 -35.62194998 20.53989272 -33.62109375 19.46484375 C-32.55358887 18.9116748 -31.48608398 18.35850586 -30.38623047 17.78857422 C-24.98194595 14.93408335 -19.71706396 11.84520208 -14.43792725 8.76724243 C-10.68666141 6.58723364 -6.91643086 4.43982404 -3.15112305 2.28417969 C-1.09286848 1.17443229 -1.09286848 1.17443229 0 0 Z " fill="#4987C7" transform="translate(97,23)"/>
<path d="M0 0 C1.51533242 7.88167134 2.85946297 16.31760102 0 24 C-6.18851144 30.73467213 -15.46791053 34.96680493 -24 38 C-24.99 38 -25.98 38 -27 38 C-27.33 36.68 -27.66 35.36 -28 34 C-27.16726562 33.7009375 -26.33453125 33.401875 -25.4765625 33.09375 C-22.80643113 31.32723592 -22.80643113 31.32723592 -22.79980469 29.0546875 C-22.91193168 27.42918584 -23.03639154 25.80450738 -23.17041016 24.18066406 C-23.52108314 19.58592731 -23.62132679 15.3667268 -22 11 C-16.96953819 5.50009955 -7.58664336 0 0 0 Z " fill="#4987C7" transform="translate(37,45)"/>
<path d="M0 0 C1.26070312 0.74636719 1.26070312 0.74636719 2.546875 1.5078125 C3.13799072 1.83475098 3.72910645 2.16168945 4.33813477 2.49853516 C6.36930648 3.63105815 8.36443229 4.81275591 10.359375 6.0078125 C11.05224609 6.41128906 11.74511719 6.81476563 12.45898438 7.23046875 C14.19110945 8.26462421 15.87418064 9.38005882 17.546875 10.5078125 C17.546875 11.1678125 17.546875 11.8278125 17.546875 12.5078125 C15.02711832 14.53134252 12.19135457 16.09976881 9.421875 17.7578125 C8.66132812 18.2425 7.90078125 18.7271875 7.1171875 19.2265625 C1.44586008 22.62935895 1.44586008 22.62935895 -2.515625 22.09375 C-6.18383086 20.11330907 -9.78522841 18.07995767 -13.328125 15.8828125 C-14.01648438 15.46257812 -14.70484375 15.04234375 -15.4140625 14.609375 C-17.09704158 13.58088778 -18.77555032 12.5450915 -20.453125 11.5078125 C-17.23818763 7.96416582 -13.61624812 5.52664307 -9.515625 3.1328125 C-8.90783203 2.75253906 -8.30003906 2.37226562 -7.67382812 1.98046875 C-4.93085227 0.37670078 -3.18548593 -0.63912616 0 0 Z " fill="#4987C7" transform="translate(37.453125,71.4921875)"/>
<path d="M0 0 C2.12361603 1.03458217 4.09671008 2.1652053 6.078125 3.453125 C6.78453125 3.90816406 7.4909375 4.36320312 8.21875 4.83203125 C9.01539063 5.35603516 9.01539063 5.35603516 9.828125 5.890625 C6.17133287 8.74720307 2.31864785 11.24187119 -1.609375 13.703125 C-2.26486328 14.13560547 -2.92035156 14.56808594 -3.59570312 15.01367188 C-8.47517228 18.04315172 -8.47517228 18.04315172 -11.9375 17.28515625 C-14.7264984 15.54447019 -17.47532356 13.77193996 -20.171875 11.890625 C-16.95133856 8.32388089 -13.30725113 5.94428687 -9.171875 3.578125 C-8.55570313 3.20623047 -7.93953125 2.83433594 -7.3046875 2.45117188 C-2.80531959 -0.14127509 -2.80531959 -0.14127509 0 0 Z " fill="#4987C7" transform="translate(78.171875,21.109375)"/>
</svg>
