<?xml version="1.0" encoding="UTF-8"?>
<svg version="1.1" xmlns="http://www.w3.org/2000/svg" width="300" height="63">
<path d="M0 0 C4.70920139 2.87543403 4.70920139 2.87543403 5.8203125 5.09765625 C7.46583212 5.81493403 9.13453539 6.48090853 10.8203125 7.09765625 C12.8203125 8.09765625 12.8203125 8.09765625 13.8203125 10.09765625 C17.2853125 8.11765625 17.2853125 8.11765625 20.8203125 6.09765625 C21.4453125 7.97265625 21.4453125 7.97265625 21.8203125 10.09765625 C21.1603125 10.75765625 20.5003125 11.41765625 19.8203125 12.09765625 C20.3153125 12.59265625 20.3153125 12.59265625 20.8203125 13.09765625 C21.77286123 16.33525663 21.84730128 18.8719721 20.8203125 22.09765625 C17.71165481 25.08223736 14.23202905 27.16206805 10.46875 29.24023438 C8.69926791 30.22046509 6.96779984 31.25055142 5.234375 32.29296875 C-3.20051126 37.15774036 -3.20051126 37.15774036 -7.37060547 36.90185547 C-10.1796875 36.09765625 -10.1796875 36.09765625 -13.1796875 34.09765625 C-13.47265625 31.93359375 -13.47265625 31.93359375 -13.3671875 29.47265625 C-13.34011719 28.65539062 -13.31304687 27.838125 -13.28515625 26.99609375 C-13.25035156 26.36960937 -13.21554688 25.743125 -13.1796875 25.09765625 C-11.38825543 24.11806045 -9.59653446 23.13899295 -7.8046875 22.16015625 C-6.80695313 21.61488281 -5.80921875 21.06960937 -4.78125 20.5078125 C-3.25898404 19.68268035 -1.72839967 18.87201234 -0.1796875 18.09765625 C-1.1696875 17.47890625 -2.1596875 16.86015625 -3.1796875 16.22265625 C-4.6646875 15.17078125 -4.6646875 15.17078125 -6.1796875 14.09765625 C-6.1796875 13.43765625 -6.1796875 12.77765625 -6.1796875 12.09765625 C-9.77415701 14.15798504 -13.36702593 16.22107047 -16.95849609 18.28662109 C-18.17812167 18.98755904 -19.39816634 19.68776835 -20.61865234 20.38720703 C-22.38231823 21.39810628 -24.14441347 22.41169784 -25.90625 23.42578125 C-27.49300537 24.3369873 -27.49300537 24.3369873 -29.11181641 25.26660156 C-31.25053274 26.5430915 -33.33972089 27.90471285 -35.38427734 29.32714844 C-38.1796875 31.09765625 -38.1796875 31.09765625 -41.1796875 31.09765625 C-40.9921875 29.28515625 -40.9921875 29.28515625 -40.1796875 27.09765625 C-39.3546875 26.74703125 -38.5296875 26.39640625 -37.6796875 26.03515625 C-36.8546875 25.39578125 -36.0296875 24.75640625 -35.1796875 24.09765625 C-35.15265248 22.39571135 -35.19734981 20.69227812 -35.28125 18.9921875 C-35.00577383 15.10283206 -34.6549552 13.57680225 -31.87597656 10.77514648 C-28.68859088 8.58994544 -25.44810946 6.69619819 -22.0546875 4.84765625 C-20.92546875 4.17347656 -19.79625 3.49929687 -18.6328125 2.8046875 C-11.91707924 -1.04073822 -7.58862447 -3.14152734 0 0 Z " fill="#4887C8" transform="translate(86.1796875,1.90234375)"/>
<path d="M0 0 C7.26 0 14.52 0 22 0 C22 6.75 22 6.75 19.59375 10.3046875 C18.84931641 11.42617188 18.84931641 11.42617188 18.08984375 12.5703125 C17.56519531 13.33085937 17.04054687 14.09140625 16.5 14.875 C15.97535156 15.65875 15.45070312 16.4425 14.91015625 17.25 C13.61880589 19.175286 12.31541969 21.09111484 11 23 C12.17369141 23.07347656 12.17369141 23.07347656 13.37109375 23.1484375 C14.38300781 23.22320312 15.39492187 23.29796875 16.4375 23.375 C17.44683594 23.44460937 18.45617187 23.51421875 19.49609375 23.5859375 C20.32238281 23.72257812 21.14867187 23.85921875 22 24 C22.33 24.66 22.66 25.32 23 26 C25.64 17.42 28.28 8.84 31 0 C34.3 0 37.6 0 41 0 C42.28925432 3.91195726 43.57076022 7.82635946 44.84521484 11.74316406 C45.27962702 13.07458394 45.71613096 14.40532325 46.15478516 15.73535156 C46.7858062 17.64987799 47.4086298 19.56710009 48.03125 21.484375 C48.59682617 23.21252441 48.59682617 23.21252441 49.17382812 24.97558594 C50 28 50 28 50 32 C47.36 32 44.72 32 42 32 C41.34 29.69 40.68 27.38 40 25 C37.36 25 34.72 25 32 25 C31.814375 26.4540625 31.814375 26.4540625 31.625 27.9375 C31.41875 28.948125 31.2125 29.95875 31 31 C28.0780231 32.46098845 25.50106525 32.11134901 22.2421875 32.09765625 C21.24761032 32.09553383 21.24761032 32.09553383 20.23294067 32.09336853 C18.11358137 32.08776754 15.99432741 32.075215 13.875 32.0625 C12.43880361 32.05748512 11.00260556 32.05292219 9.56640625 32.04882812 C6.04423655 32.03779782 2.52212855 32.02053259 -1 32 C-1.23537659 27.72577508 -1.00021088 25.25031153 1.40625 21.6953125 C1.90253906 20.94765625 2.39882812 20.2 2.91015625 19.4296875 C3.43480469 18.66914062 3.95945313 17.90859375 4.5 17.125 C5.02464844 16.34125 5.54929688 15.5575 6.08984375 14.75 C7.38096735 12.82505208 8.68885969 10.91137012 10 9 C6.7 8.67 3.4 8.34 0 8 C0 5.36 0 2.72 0 0 Z M35 10 C34.67 12.64 34.34 15.28 34 18 C35.32 18 36.64 18 38 18 C37.74438677 15.6568787 37.40729228 13.32156597 37 11 C36.34 10.67 35.68 10.34 35 10 Z " fill="#4888C8" transform="translate(149,16)"/>
<path d="M0 0 C0.99 0.33 1.98 0.66 3 1 C3 1.99 3 2.98 3 4 C1.68 4 0.36 4 -1 4 C-1 4.66 -1 5.32 -1 6 C-2.65 6.66 -4.3 7.32 -6 8 C-5.86440674 8.77706299 -5.72881348 9.55412598 -5.58911133 10.35473633 C-5.2361394 13.85021002 -5.20851912 16.5670645 -6 20 C-9.36191043 23.54351262 -13.35237105 25.51371047 -17.6875 27.6875 C-18.79029297 28.29271484 -19.89308594 28.89792969 -21.02929688 29.52148438 C-30.21469138 34.46661217 -30.21469138 34.46661217 -35 35 C-37.67578125 33.85546875 -37.67578125 33.85546875 -40.3125 32.1875 C-41.19550781 31.64480469 -42.07851562 31.10210937 -42.98828125 30.54296875 C-43.65214844 30.03378906 -44.31601563 29.52460937 -45 29 C-45 28.34 -45 27.68 -45 27 C-43.94425781 26.39696045 -43.94425781 26.39696045 -42.8671875 25.78173828 C-21.1372707 13.37897937 -21.1372707 13.37897937 0 0 Z " fill="#4887C8" transform="translate(113,28)"/>
<path d="M0 0 C6.6 0 13.2 0 20 0 C20 2.64 20 5.28 20 8 C16.37 8 12.74 8 9 8 C9 8.99 9 9.98 9 11 C11.97 11.33 14.94 11.66 18 12 C18 14.31 18 16.62 18 19 C15.03 19.33 12.06 19.66 9 20 C9 20.99 9 21.98 9 23 C12.63 23.33 16.26 23.66 20 24 C20 26.64 20 29.28 20 32 C13.4 32 6.8 32 0 32 C0 21.44 0 10.88 0 0 Z " fill="#4986C7" transform="translate(227,16)"/>
<path d="M0 0 C6.6 0 13.2 0 20 0 C20 2.64 20 5.28 20 8 C16.04 8 12.08 8 8 8 C8 9.32 8 10.64 8 12 C11.3 12 14.6 12 18 12 C18 14.31 18 16.62 18 19 C14.7 19 11.4 19 8 19 C8 20.65 8 22.3 8 24 C11.96 24 15.92 24 20 24 C20 26.64 20 29.28 20 32 C13.4 32 6.8 32 0 32 C0 21.44 0 10.88 0 0 Z " fill="#4986C7" transform="translate(125,16)"/>
<path d="M0 0 C-0.19142578 1.71896484 -0.19142578 1.71896484 -0.38671875 3.47265625 C-0.948694 10.28199735 -0.948694 10.28199735 0 17 C3.19240277 20.50298741 6.6109889 22.29712069 11 24 C9.46186447 28.61440658 6.23005845 29.94071432 2.0625 32.16015625 C-1 33 -1 33 -3.8125 32.12109375 C-6.35248612 30.55250113 -8.6528941 28.84086737 -11 27 C-13.01626246 25.66441522 -13.01626246 25.66441522 -15 25 C-17.64225405 26.31865712 -17.64225405 26.31865712 -20 28 C-20.66 28 -21.32 28 -22 28 C-22 26.68 -22 25.36 -22 24 C-21.01 24 -20.02 24 -19 24 C-19 23.34 -19 22.68 -19 22 C-17.68 21.67 -16.36 21.34 -15 21 C-15.13921875 20.07058594 -15.2784375 19.14117187 -15.421875 18.18359375 C-15.773319 14.17127479 -15.86457382 10.94434924 -15 7 C-10.88415488 3.00944697 -5.83224015 0 0 0 Z " fill="#4888C9" transform="translate(67,23)"/>
<path d="M0 0 C2.34576488 1.11291913 3.97143135 2.33553342 6 4 C4.625 6.5625 4.625 6.5625 2 9 C-1.42221863 9.15019141 -4.64463 8.64674116 -8 8 C-8.96165069 10.88495206 -9.22728086 12.98593354 -9.3125 16 C-9.34988281 16.86625 -9.38726562 17.7325 -9.42578125 18.625 C-9.20037578 21.12696848 -9.20037578 21.12696848 -7.24609375 22.86328125 C-4.53898604 24.23331315 -3.59582704 24.08867856 -0.75 23.1875 C0.4875 22.795625 1.725 22.40375 3 22 C3.99 23.32 4.98 24.64 6 26 C5.08486681 28.28783297 4.34515354 29.73449728 2.375 31.25 C-2.47119283 32.78037668 -6.57256697 32.52156207 -11.25 30.8125 C-14.74874149 28.50651129 -17.13226683 26.09702183 -18.75 22.1875 C-19.56839162 15.02657335 -19.24905136 9.98308789 -15 4 C-10.44008507 -0.24178133 -6.00631501 -1.11347016 0 0 Z " fill="#4887C9" transform="translate(218,16)"/>
<path d="M0 0 C0 0.33 0 0.66 0 1 C-9.24 1 -18.48 1 -28 1 C-27.67 0.34 -27.34 -0.32 -27 -1 C-23.43842366 -1.22677207 -19.87584575 -1.42815479 -16.3125 -1.625 C-15.30509766 -1.68945312 -14.29769531 -1.75390625 -13.25976562 -1.8203125 C-12.28330078 -1.871875 -11.30683594 -1.9234375 -10.30078125 -1.9765625 C-9.40528564 -2.02893066 -8.50979004 -2.08129883 -7.5871582 -2.13525391 C-4.69231059 -1.98391432 -2.61741403 -1.20867188 0 0 Z " fill="#4B6EB7" transform="translate(177,47)"/>
<path d="M0 0 C0.99 0 1.98 0 3 0 C3 5.28 3 10.56 3 16 C2.34 16 1.68 16 1 16 C1 11.38 1 6.76 1 2 C0.34 1.67 -0.32 1.34 -1 1 C-0.67 0.67 -0.34 0.34 0 0 Z " fill="#4079B1" transform="translate(64,23)"/>
<path d="M0 0 C1.32229189 2.64458379 1.09677194 4.67761301 1.0625 7.625 C1.05347656 8.62789062 1.04445313 9.63078125 1.03515625 10.6640625 C1.02355469 11.43492188 1.01195312 12.20578125 1 13 C-0.65 13.33 -2.3 13.66 -4 14 C-3.67 13.34 -3.34 12.68 -3 12 C-2.34 12 -1.68 12 -1 12 C-1.01160156 11.21753906 -1.02320313 10.43507813 -1.03515625 9.62890625 C-1.04417969 8.61699219 -1.05320313 7.60507812 -1.0625 6.5625 C-1.07410156 5.55316406 -1.08570313 4.54382813 -1.09765625 3.50390625 C-1 1 -1 1 0 0 Z " fill="#4B8ED2" transform="translate(54,15)"/>
<path d="M0 0 C0.99 0.33 1.98 0.66 3 1 C3 1.99 3 2.98 3 4 C1.68 4 0.36 4 -1 4 C-1 4.66 -1 5.32 -1 6 C-1.66 5.67 -2.32 5.34 -3 5 C-2 2 -2 2 0 0 Z " fill="#4985C4" transform="translate(113,28)"/>
<path d="M0 0 C2 3 2 3 1.625 5.1875 C1.41875 5.785625 1.2125 6.38375 1 7 C0.67 6.67 0.34 6.34 0 6 C-1.68183948 5.76712992 -3.3712416 5.58735834 -5.0625 5.4375 C-5.98160156 5.35371094 -6.90070313 5.26992188 -7.84765625 5.18359375 C-8.91306641 5.09271484 -8.91306641 5.09271484 -10 5 C-10 4.67 -10 4.34 -10 4 C-6.7 4 -3.4 4 0 4 C0 2.68 0 1.36 0 0 Z " fill="#4D8CD2" transform="translate(143,17)"/>
<path d="M0 0 C0.33 0.66 0.66 1.32 1 2 C2.32 2 3.64 2 5 2 C5.33 1.34 5.66 0.68 6 0 C6 1.32 6 2.64 6 4 C4.02 4.33 2.04 4.66 0 5 C-0.33 4.34 -0.66 3.68 -1 3 C-0.67 2.01 -0.34 1.02 0 0 Z " fill="#4793CE" transform="translate(191,43)"/>
<path d="M0 0 C0.99 0.33 1.98 0.66 3 1 C2.67 1.99 2.34 2.98 2 4 C1.01 3.67 0.02 3.34 -1 3 C-0.67 2.01 -0.34 1.02 0 0 Z " fill="#4887C8" transform="translate(109,6)"/>
</svg>
