<?xml version="1.0" encoding="UTF-8"?>
<svg version="1.1" xmlns="http://www.w3.org/2000/svg" width="32" height="32">
<path d="M0 0 C1.010625 0.515625 2.02125 1.03125 3.0625 1.5625 C6.05374967 3.29303524 6.05374967 3.29303524 10 3 C10.6875 6.0625 10.6875 6.0625 10 10 C6.68438328 13.00228524 3.13896307 15.30196387 -1 17 C-3.86328125 16.6875 -3.86328125 16.6875 -6 16 C-6.25 13.6875 -6.25 13.6875 -6 11 C-4 9.1875 -4 9.1875 -2 8 C-3.96875804 6.72673214 -3.96875804 6.72673214 -6.078125 7.6484375 C-8.20036093 8.83861619 -8.20036093 8.83861619 -8.609375 11.1640625 C-8.67898438 12.38222656 -8.67898438 12.38222656 -8.75 13.625 C-8.80671875 14.44226562 -8.8634375 15.25953125 -8.921875 16.1015625 C-8.94765625 16.72804688 -8.9734375 17.35453125 -9 18 C-6.3283743 19.34568391 -6.3283743 19.34568391 -3 20 C0.20134732 18.73155671 0.20134732 18.73155671 3.1875 16.625 C8.75096525 13 8.75096525 13 12 13 C11.22584603 17.46627292 10.24510796 20.89323737 6.78515625 23.96875 C3.16416875 26.27746985 0.2602427 27.92284228 -4.0625 28.1875 C-7.58109203 26.76509046 -10.79496523 25.0108457 -14.046875 23.05859375 C-15.92279681 21.84116343 -15.92279681 21.84116343 -18 22 C-18 21.01 -18 20.02 -18 19 C-17.34 19 -16.68 19 -16 19 C-16 17.35 -16 15.7 -16 14 C-16.66 14 -17.32 14 -18 14 C-18 13.01 -18 12.02 -18 11 C-17.34 11 -16.68 11 -16 11 C-16.09023438 10.24203125 -16.18046875 9.4840625 -16.2734375 8.703125 C-16 6 -16 6 -14.1015625 4.234375 C-13.28429687 3.74453125 -12.46703125 3.2546875 -11.625 2.75 C-10.81289062 2.24984375 -10.00078125 1.7496875 -9.1640625 1.234375 C-5.44609686 -0.88634186 -4.19244676 -1.14339457 0 0 Z " fill="#4987C7" transform="translate(20,3)"/>
</svg>
